<svg xmlns="http://www.w3.org/2000/svg" width="1600" height="1120" viewBox="0 0 1600 1120" role="img" aria-label="thqbot 产品架构图">
  <style>
    text { font-family: Inter, "Segoe UI", system-ui, -apple-system, "PingFang SC", "Microsoft YaHei", "Helvetica Neue", Arial, sans-serif; }
    .mono { font-family: "SF Mono", "JetBrains Mono", "Fira Code", Consolas, "Liberation Mono", Menlo, monospace; }
  </style>
  <defs>
    <radialGradient id="g-glow" cx="50%" cy="50%" r="50%">
      <stop offset="0" stop-color="#679EFE" stop-opacity="0.20"/>
      <stop offset="0.55" stop-color="#679EFE" stop-opacity="0.06"/>
      <stop offset="1" stop-color="#679EFE" stop-opacity="0"/>
    </radialGradient>
    <linearGradient id="g-accent" x1="0" y1="0" x2="1" y2="1">
      <stop offset="0" stop-color="#8FBAFF"/>
      <stop offset="0.5" stop-color="#679EFE"/>
      <stop offset="1" stop-color="#3F6FE0"/>
    </linearGradient>
    <marker id="ar" viewBox="0 0 10 10" refX="9" refY="5" markerWidth="7" markerHeight="7" orient="auto-start-reverse">
      <path d="M0 1.6 L9 5 L0 8.4 z" fill="#679EFE"/>
    </marker>
    <marker id="arm" viewBox="0 0 10 10" refX="9" refY="5" markerWidth="6" markerHeight="6" orient="auto-start-reverse">
      <path d="M0 1.6 L9 5 L0 8.4 z" fill="#8A8A98"/>
    </marker>
    <marker id="arg" viewBox="0 0 10 10" refX="9" refY="5" markerWidth="7" markerHeight="7" orient="auto-start-reverse">
      <path d="M0 1.6 L9 5 L0 8.4 z" fill="#22C55E"/>
    </marker>
  </defs>
  <rect width="1600" height="1120" fill="#0F0F11"/>
  <ellipse cx="100" cy="40" rx="700" ry="420" fill="url(#g-glow)"/>
  <rect x="0" y="0" width="1600" height="4" rx="0" fill="#679EFE"/>
  <text x="80" y="96" font-size="30" font-weight="700" fill="#EAEAEF" id="t1">thqbot 产品架构</text>
  <text x="80" y="126" font-size="14" font-weight="400" fill="#8A8A98" id="t2">从用户场景到交付形态，以及开源核心与企业版保留之间的边界</text>
  <rect x="80" y="150" width="1440" height="176" rx="16" fill="#1A1A1F" stroke="rgba(255,255,255,0.06)" stroke-width="1"/>
  <rect x="80" y="150" width="200" height="176" rx="16" fill="#26262E"/>
  <rect x="264" y="150" width="16" height="176" rx="0" fill="#26262E"/>
  <text x="104" y="184" font-size="15" font-weight="600" fill="#EAEAEF" id="t3">用户与场景</text>
  <text x="104" y="208" font-size="11" font-weight="400" fill="#8A8A98" id="t4">谁在用、解决什么</text>
  <line x1="280" y1="168" x2="280" y2="308" stroke="rgba(255,255,255,0.12)" stroke-width="1"/>
  <rect x="300" y="172" width="390" height="132" rx="12" fill="#202027" stroke="rgba(255,255,255,0.06)" stroke-width="1"/>
  <rect x="316" y="188" width="26" height="26" rx="7.28" fill="rgba(103,158,254,0.14)"/>
  <circle cx="329" cy="201" r="4.16" fill="#679EFE"/>
  <text x="316" y="234" font-size="15" font-weight="600" fill="#EAEAEF" id="t5">一线业务同学</text>
  <text x="316" y="254" font-size="12" font-weight="400" fill="#8A8A98" id="t6">不写代码也能调起技能</text>
  <text x="316" y="272" font-size="12" font-weight="400" fill="#8A8A98" id="t7">对话式完成文档与数据任务</text>
  <rect x="713" y="172" width="390" height="132" rx="12" fill="#202027" stroke="rgba(255,255,255,0.06)" stroke-width="1"/>
  <rect x="729" y="188" width="26" height="26" rx="7.28" fill="rgba(103,158,254,0.14)"/>
  <rect x="736.28" y="195.28" width="4.68" height="4.68" rx="2" fill="#679EFE"/>
  <rect x="743.04" y="195.28" width="4.68" height="4.68" rx="2" fill="#679EFE"/>
  <rect x="736.28" y="202.04" width="4.68" height="4.68" rx="2" fill="#679EFE"/>
  <rect x="743.04" y="202.04" width="4.68" height="4.68" rx="2" fill="#679EFE"/>
  <text x="729" y="234" font-size="15" font-weight="600" fill="#EAEAEF" id="t8">平台开发者</text>
  <text x="729" y="254" font-size="12" font-weight="400" fill="#8A8A98" id="t9">接 REST + SSE 扩展前端</text>
  <text x="729" y="272" font-size="12" font-weight="400" fill="#8A8A98" id="t10">按 SKILL.md 规范贡献技能</text>
  <rect x="1126" y="172" width="390" height="132" rx="12" fill="#202027" stroke="rgba(255,255,255,0.06)" stroke-width="1"/>
  <rect x="1142" y="188" width="26" height="26" rx="7.28" fill="rgba(103,158,254,0.14)"/>
  <rect x="1149.28" y="196.84" width="11.44" height="2.4" rx="1.2" fill="#679EFE"/>
  <rect x="1149.28" y="201" width="7.8" height="2.4" rx="1.2" fill="#679EFE"/>
  <rect x="1149.28" y="205.16" width="9.88" height="2.4" rx="1.2" fill="#679EFE"/>
  <text x="1142" y="234" font-size="15" font-weight="600" fill="#EAEAEF" id="t11">运维与集成</text>
  <text x="1142" y="254" font-size="12" font-weight="400" fill="#8A8A98" id="t12">docker compose 一键起全套</text>
  <text x="1142" y="272" font-size="12" font-weight="400" fill="#8A8A98" id="t13">Kafka 信封对接既有系统</text>
  <rect x="80" y="346" width="1440" height="196" rx="16" fill="#1A1A1F" stroke="rgba(255,255,255,0.06)" stroke-width="1"/>
  <rect x="80" y="346" width="200" height="196" rx="16" fill="#26262E"/>
  <rect x="264" y="346" width="16" height="196" rx="0" fill="#26262E"/>
  <text x="104" y="380" font-size="15" font-weight="600" fill="#EAEAEF" id="t14">开源核心能力</text>
  <text x="104" y="404" font-size="11" font-weight="400" fill="#8A8A98" id="t15">本仓库已实现并测试</text>
  <line x1="280" y1="364" x2="280" y2="524" stroke="rgba(255,255,255,0.12)" stroke-width="1"/>
  <rect x="300" y="368" width="230" height="152" rx="12" fill="#202027" stroke="rgba(255,255,255,0.06)" stroke-width="1"/>
  <rect x="316" y="384" width="26" height="26" rx="7.28" fill="rgba(103,158,254,0.14)"/>
  <rect x="323.28" y="391.28" width="4.68" height="4.68" rx="2" fill="#679EFE"/>
  <rect x="330.04" y="391.28" width="4.68" height="4.68" rx="2" fill="#679EFE"/>
  <rect x="323.28" y="398.04" width="4.68" height="4.68" rx="2" fill="#679EFE"/>
  <rect x="330.04" y="398.04" width="4.68" height="4.68" rx="2" fill="#679EFE"/>
  <text x="316" y="430" font-size="15" font-weight="600" fill="#EAEAEF" id="t16">Web 工作台</text>
  <text x="316" y="450" font-size="12" font-weight="400" fill="#8A8A98" id="t17">对话 / 轨迹双视图</text>
  <text x="316" y="468" font-size="12" font-weight="400" fill="#8A8A98" id="t18">附件、设置、模型切换</text>
  <rect x="546" y="368" width="230" height="152" rx="12" fill="#202027" stroke="rgba(255,255,255,0.06)" stroke-width="1"/>
  <rect x="562" y="384" width="26" height="26" rx="7.28" fill="rgba(103,158,254,0.14)"/>
  <path d="M577.6 389.72 L570.84 397.78 L574.74 397.78 L572.4 404.28 L579.42 395.96 L575.26 395.96 Z" fill="#679EFE" stroke="#679EFE" stroke-width="1"/>
  <text x="562" y="430" font-size="15" font-weight="600" fill="#EAEAEF" id="t19">对话与编排</text>
  <text x="562" y="450" font-size="12" font-weight="400" fill="#8A8A98" id="t20">多轮会话落 PostgreSQL</text>
  <text x="562" y="468" font-size="12" font-weight="400" fill="#8A8A98" id="t21">Kafka 异步解耦</text>
  <rect x="792" y="368" width="230" height="152" rx="12" fill="#202027" stroke="rgba(255,255,255,0.06)" stroke-width="1"/>
  <rect x="808" y="384" width="26" height="26" rx="7.28" fill="rgba(103,158,254,0.14)"/>
  <circle cx="821" cy="397" r="5.72" fill="none" stroke="#679EFE" stroke-width="2"/>
  <text x="808" y="430" font-size="15" font-weight="600" fill="#EAEAEF" id="t22">技能与工具</text>
  <text x="808" y="450" font-size="12" font-weight="400" fill="#8A8A98" id="t23">SKILL.md 加载与注册</text>
  <text x="808" y="468" font-size="12" font-weight="400" fill="#8A8A98" id="t24">read_file 沙箱</text>
  <rect x="1038" y="368" width="230" height="152" rx="12" fill="#202027" stroke="rgba(255,255,255,0.06)" stroke-width="1"/>
  <rect x="1054" y="384" width="26" height="26" rx="7.28" fill="rgba(103,158,254,0.14)"/>
  <rect x="1061.28" y="392.84" width="11.44" height="2.4" rx="1.2" fill="#679EFE"/>
  <rect x="1061.28" y="397" width="7.8" height="2.4" rx="1.2" fill="#679EFE"/>
  <rect x="1061.28" y="401.16" width="9.88" height="2.4" rx="1.2" fill="#679EFE"/>
  <text x="1054" y="430" font-size="15" font-weight="600" fill="#EAEAEF" id="t25">实时与可观测</text>
  <text x="1054" y="450" font-size="12" font-weight="400" fill="#8A8A98" id="t26">SSE 进度推送</text>
  <text x="1054" y="468" font-size="12" font-weight="400" fill="#8A8A98" id="t27">回合级用量与耗时</text>
  <rect x="1284" y="368" width="230" height="152" rx="12" fill="#202027" stroke="rgba(255,255,255,0.06)" stroke-width="1"/>
  <rect x="1300" y="384" width="26" height="26" rx="7.28" fill="rgba(103,158,254,0.14)"/>
  <rect x="1308.32" y="395.96" width="9.36" height="6.76" rx="3" fill="#679EFE"/>
  <path d="M1310.4 395.96 v-2.6 a2.6 2.6 0 0 1 5.2 0 v2.6" fill="none" stroke="#679EFE" stroke-width="2"/>
  <text x="1300" y="430" font-size="15" font-weight="600" fill="#EAEAEF" id="t28">附件与知识</text>
  <text x="1300" y="450" font-size="12" font-weight="400" fill="#8A8A98" id="t29">MinIO 上传 / 下载</text>
  <text x="1300" y="468" font-size="12" font-weight="400" fill="#8A8A98" id="t30">技能直读对象存储</text>
  <rect x="80" y="562" width="1440" height="176" rx="16" fill="#1A1A1F" stroke="rgba(255,255,255,0.06)" stroke-width="1"/>
  <rect x="80" y="562" width="200" height="176" rx="16" fill="#26262E"/>
  <rect x="264" y="562" width="16" height="176" rx="0" fill="#26262E"/>
  <text x="104" y="596" font-size="15" font-weight="600" fill="#EAEAEF" id="t31">平台支撑</text>
  <text x="104" y="620" font-size="11" font-weight="400" fill="#8A8A98" id="t32">同一套实现即架构</text>
  <line x1="280" y1="580" x2="280" y2="720" stroke="rgba(255,255,255,0.12)" stroke-width="1"/>
  <rect x="300" y="584" width="292" height="132" rx="12" fill="#202027" stroke="rgba(255,255,255,0.06)" stroke-width="1"/>
  <rect x="316" y="600" width="26" height="26" rx="7.28" fill="#26262E"/>
  <path d="M331.6 605.72 L324.84 613.78 L328.74 613.78 L326.4 620.28 L333.42 611.96 L329.26 611.96 Z" fill="#8A8A98" stroke="#8A8A98" stroke-width="1"/>
  <text x="316" y="646" font-size="15" font-weight="600" fill="#EAEAEF" id="t33">消息骨干</text>
  <text x="316" y="666" font-size="12" font-weight="400" fill="#8A8A98" id="t34">Kafka 3 分区</text>
  <text x="316" y="684" font-size="12" font-weight="400" fill="#8A8A98" id="t35">信封契约 v1.2</text>
  <rect x="608" y="584" width="292" height="132" rx="12" fill="#202027" stroke="rgba(255,255,255,0.06)" stroke-width="1"/>
  <rect x="624" y="600" width="26" height="26" rx="7.28" fill="#26262E"/>
  <rect x="631.28" y="607.28" width="4.68" height="4.68" rx="2" fill="#8A8A98"/>
  <rect x="638.04" y="607.28" width="4.68" height="4.68" rx="2" fill="#8A8A98"/>
  <rect x="631.28" y="614.04" width="4.68" height="4.68" rx="2" fill="#8A8A98"/>
  <rect x="638.04" y="614.04" width="4.68" height="4.68" rx="2" fill="#8A8A98"/>
  <text x="624" y="646" font-size="15" font-weight="600" fill="#EAEAEF" id="t36">数据与状态</text>
  <text x="624" y="666" font-size="12" font-weight="400" fill="#8A8A98" id="t37">PostgreSQL 事实来源</text>
  <text x="624" y="684" font-size="12" font-weight="400" fill="#8A8A98" id="t38">Redis 缓存 / 锁 / 通道</text>
  <rect x="916" y="584" width="292" height="132" rx="12" fill="#202027" stroke="rgba(255,255,255,0.06)" stroke-width="1"/>
  <rect x="932" y="600" width="26" height="26" rx="7.28" fill="#26262E"/>
  <circle cx="945" cy="613" r="5.72" fill="none" stroke="#8A8A98" stroke-width="2"/>
  <text x="932" y="646" font-size="15" font-weight="600" fill="#EAEAEF" id="t39">对象存储</text>
  <text x="932" y="666" font-size="12" font-weight="400" fill="#8A8A98" id="t40">MinIO bucket</text>
  <text x="932" y="684" font-size="12" font-weight="400" fill="#8A8A98" id="t41">键含 user_id 隔离</text>
  <rect x="1224" y="584" width="292" height="132" rx="12" fill="#202027" stroke="rgba(255,255,255,0.06)" stroke-width="1"/>
  <rect x="1240" y="600" width="26" height="26" rx="7.28" fill="#26262E"/>
  <rect x="1247.28" y="608.84" width="11.44" height="2.4" rx="1.2" fill="#8A8A98"/>
  <rect x="1247.28" y="613" width="7.8" height="2.4" rx="1.2" fill="#8A8A98"/>
  <rect x="1247.28" y="617.16" width="9.88" height="2.4" rx="1.2" fill="#8A8A98"/>
  <text x="1240" y="646" font-size="15" font-weight="600" fill="#EAEAEF" id="t42">Agent 运行时</text>
  <text x="1240" y="666" font-size="12" font-weight="400" fill="#8A8A98" id="t43">AgentLoop + 技能</text>
  <text x="1240" y="684" font-size="12" font-weight="400" fill="#8A8A98" id="t44">多 provider 可换模型</text>
  <rect x="80" y="758" width="1440" height="290" rx="16" fill="#1A1A1F" stroke="rgba(255,255,255,0.06)" stroke-width="1"/>
  <rect x="80" y="758" width="200" height="290" rx="16" fill="#26262E"/>
  <rect x="264" y="758" width="16" height="290" rx="0" fill="#26262E"/>
  <text x="104" y="792" font-size="15" font-weight="600" fill="#EAEAEF" id="t45">开源边界</text>
  <text x="104" y="816" font-size="11" font-weight="400" fill="#8A8A98" id="t46">什么开源、什么保留</text>
  <line x1="280" y1="776" x2="280" y2="1030" stroke="rgba(255,255,255,0.12)" stroke-width="1"/>
  <rect x="300" y="780" width="588" height="246" rx="12" fill="#202027" stroke="rgba(103,158,254,0.45)" stroke-width="1"/>
  <text x="320" y="814" font-size="15" font-weight="600" fill="#679EFE" id="t47">本仓库开源（Apache-2.0）</text>
  <circle cx="328" cy="844.1" r="3.2" fill="#22C55E"/>
  <text x="342" y="848" font-size="13" font-weight="400" fill="#EAEAEF" id="t48">网关 BFF：鉴权 / 会话 / 附件 / SSE / 静态托管</text>
  <circle cx="328" cy="872.1" r="3.2" fill="#22C55E"/>
  <text x="342" y="876" font-size="13" font-weight="400" fill="#EAEAEF" id="t49">Kafka 编排与信封契约、出站消费幂等</text>
  <circle cx="328" cy="900.1" r="3.2" fill="#22C55E"/>
  <text x="342" y="904" font-size="13" font-weight="400" fill="#EAEAEF" id="t50">Agent 运行时、技能加载、工具注册与沙箱</text>
  <circle cx="328" cy="928.1" r="3.2" fill="#22C55E"/>
  <text x="342" y="932" font-size="13" font-weight="400" fill="#EAEAEF" id="t51">PostgreSQL schema 与 Alembic 迁移</text>
  <circle cx="328" cy="956.1" r="3.2" fill="#22C55E"/>
  <text x="342" y="960" font-size="13" font-weight="400" fill="#EAEAEF" id="t52">对齐 DSH 的深色工作台前端</text>
  <circle cx="328" cy="984.1" r="3.2" fill="#22C55E"/>
  <text x="342" y="988" font-size="13" font-weight="400" fill="#EAEAEF" id="t53">隔离式测试与端到端脚本</text>
  <rect x="904" y="780" width="588" height="246" rx="12" fill="#202027" stroke="rgba(255,255,255,0.06)" stroke-width="1"/>
  <text x="924" y="814" font-size="15" font-weight="600" fill="#F59E0B" id="t54">企业版保留（不开源）</text>
  <circle cx="932" cy="844.1" r="3.2" fill="#F59E0B"/>
  <text x="946" y="848" font-size="13" font-weight="400" fill="#EAEAEF" id="t55">多租户隔离、RBAC 与审计日志</text>
  <circle cx="932" cy="872.1" r="3.2" fill="#F59E0B"/>
  <text x="946" y="876" font-size="13" font-weight="400" fill="#EAEAEF" id="t56">技能市场：审核流水线、版本与灰度</text>
  <circle cx="932" cy="900.1" r="3.2" fill="#F59E0B"/>
  <text x="946" y="904" font-size="13" font-weight="400" fill="#EAEAEF" id="t57">全链路可观测：OTel、成本看板、告警</text>
  <circle cx="932" cy="928.1" r="3.2" fill="#F59E0B"/>
  <text x="946" y="932" font-size="13" font-weight="400" fill="#EAEAEF" id="t58">高可用部署：多副本消费、Helm、灰度</text>
  <circle cx="932" cy="956.1" r="3.2" fill="#F59E0B"/>
  <text x="946" y="960" font-size="13" font-weight="400" fill="#EAEAEF" id="t59">企业连接器：SSO / OIDC、IM、知识库</text>
  <circle cx="932" cy="984.1" r="3.2" fill="#F59E0B"/>
  <text x="946" y="988" font-size="13" font-weight="400" fill="#EAEAEF" id="t60">配额与计费</text>
  <text x="80" y="1092" font-size="13" font-weight="400" fill="#8A8A98" id="t61">开源的是「平台底座」；企业版补的是「规模、治理与合规」。</text>
</svg>
